HIERARCHY
ROOT Hips
{
	OFFSET 0.000000 0.000000 0.000000
	CHANNELS 6 Xposition Yposition Zposition Zrotation Xrotation Yrotation
	JOINT Spine1
	{
		OFFSET 0.000000 -0.000003 16.661682
		CHANNELS 6 Xposition Yposition Zposition Zrotation Xrotation Yrotation
		JOINT Neck
		{
			OFFSET 0.000000 -0.000002 13.283280
			CHANNELS 6 Xposition Yposition Zposition Zrotation Xrotation Yrotation
			JOINT Head
			{
				OFFSET 0.000000 -1.089817 8.446080
				CHANNELS 6 Xposition Yposition Zposition Zrotation Xrotation Yrotation
				End Site
				{
					OFFSET 0.000000 -0.000002 10.898134
				}
			}
		}
		JOINT LeftShoulder
		{
			OFFSET 2.194602 0.288073 10.725539
			CHANNELS 6 Xposition Yposition Zposition Zrotation Xrotation Yrotation
			JOINT LeftArm
			{
				OFFSET 7.830960 0.000000 0.000000
				CHANNELS 6 Xposition Yposition Zposition Zrotation Xrotation Yrotation
				JOINT LeftForeArm
				{
					OFFSET 15.355260 0.000000 0.000000
					CHANNELS 6 Xposition Yposition Zposition Zrotation Xrotation Yrotation
					JOINT LeftHand
					{
						OFFSET 14.270699 0.000000 0.000000
						CHANNELS 6 Xposition Yposition Zposition Zrotation Xrotation Yrotation
						End Site
						{
							OFFSET 8.173601 0.000000 0.000000
						}
					}
				}
			}
		}
		JOINT RightShoulder
		{
			OFFSET -2.164326 0.288073 10.725539
			CHANNELS 6 Xposition Yposition Zposition Zrotation Xrotation Yrotation
			JOINT RightArm
			{
				OFFSET -7.830960 0.000000 0.000000
				CHANNELS 6 Xposition Yposition Zposition Zrotation Xrotation Yrotation
				JOINT RightForeArm
				{
					OFFSET -15.355261 0.000000 0.000000
					CHANNELS 6 Xposition Yposition Zposition Zrotation Xrotation Yrotation
					JOINT RightHand
					{
						OFFSET -14.270702 0.000000 0.000000
						CHANNELS 6 Xposition Yposition Zposition Zrotation Xrotation Yrotation
						End Site
						{
							OFFSET -8.173601 0.000000 0.000000
						}
					}
				}
			}
		}
	}
	JOINT LeftUpLeg
	{
		OFFSET 5.449080 0.000000 0.000000
		CHANNELS 6 Xposition Yposition Zposition Zrotation Xrotation Yrotation
		JOINT LeftLeg
		{
			OFFSET 0.000000 0.000004 -22.916941
			CHANNELS 6 Xposition Yposition Zposition Zrotation Xrotation Yrotation
			JOINT LeftFoot
			{
				OFFSET 0.000000 0.000004 -24.025803
				CHANNELS 6 Xposition Yposition Zposition Zrotation Xrotation Yrotation
				JOINT LeftToeBase
				{
					OFFSET 0.000000 -8.173619 -3.541901
					CHANNELS 6 Xposition Yposition Zposition Zrotation Xrotation Yrotation
					End Site
					{
						OFFSET 0.000000 -2.179627 0.000000
					}
				}
			}
		}
	}
	JOINT RightUpLeg
	{
		OFFSET -5.449080 0.000000 0.000000
		CHANNELS 6 Xposition Yposition Zposition Zrotation Xrotation Yrotation
		JOINT RightLeg
		{
			OFFSET 0.000000 0.000004 -22.916941
			CHANNELS 6 Xposition Yposition Zposition Zrotation Xrotation Yrotation
			JOINT RightFoot
			{
				OFFSET 0.000000 0.000004 -24.025803
				CHANNELS 6 Xposition Yposition Zposition Zrotation Xrotation Yrotation
				JOINT RightToeBase
				{
					OFFSET 0.000000 -8.173619 -3.541901
					CHANNELS 6 Xposition Yposition Zposition Zrotation Xrotation Yrotation
					End Site
					{
						OFFSET 0.000000 -2.179627 0.000000
					}
				}
			}
		}
	}
}
MOTION
Frames: 8
Frame Time: 0.041667
-2.020834 -1.116229 44.783772 0.502195 17.795233 -2.356183 -0.000000 -0.000001 16.661684 -4.259461 -19.793943 -8.684623 0.000001 -0.000002 13.283285 1.279993 13.486032 2.484063 0.000001 -1.089816 8.446076 1.746993 5.288080 5.717462 2.194601 0.288073 10.725532 0.709400 -8.164541 -18.298715 7.830963 -0.000002 -0.000006 -11.761395 -10.682604 4.206974 15.355264 0.000001 0.000007 2.127314 -4.450335 3.169331 14.270694 -0.000003 0.000005 18.336843 -4.875009 -2.275564 -2.164326 0.288073 10.725541 -4.643704 -1.094710 14.447187 -7.830961 -0.000000 0.000001 24.566792 18.839458 -26.725866 -15.355257 -0.000004 -0.000001 78.051529 38.184412 37.816835 -14.270701 0.000004 -0.000002 -6.521731 6.805897 32.010416 5.449080 0.000002 0.000005 17.241631 -38.298028 -14.330195 0.000001 0.000005 -22.916941 15.033426 33.966876 3.548426 0.000001 0.000004 -24.025805 17.442705 3.343606 6.407318 -0.000000 -8.173617 -3.541901 -0.000002 -0.000001 0.000000 -5.449080 0.000000 0.000001 13.169676 -25.665047 36.713650 0.000002 0.000005 -22.916943 -20.552615 30.775480 -15.453885 0.000001 0.000004 -24.025799 -26.684839 -4.183696 -12.193745 0.000000 -8.173622 -3.541901 0.000001 0.000002 0.000001 
-2.020108 -1.128468 44.787407 0.546358 17.759108 -2.341672 0.000000 0.000002 16.661676 -4.299317 -19.766363 -8.697357 0.000001 -0.000003 13.283281 1.289220 13.483829 2.488178 0.000001 -1.089818 8.446078 1.754756 5.351416 5.735391 2.194603 0.288073 10.725537 0.695265 -8.173363 -18.304729 7.830960 -0.000001 0.000013 -11.774244 -10.733469 4.239620 15.355260 -0.000001 -0.000003 2.152660 -4.429736 3.175802 14.270695 -0.000001 -0.000001 18.327016 -4.853876 -2.268269 -2.164324 0.288072 10.725542 -4.651824 -1.085284 14.452344 -7.830964 -0.000001 0.000007 24.568119 18.785764 -26.754713 -15.355254 -0.000001 -0.000003 78.115869 38.170188 37.730365 -14.270701 -0.000002 -0.000002 -6.495080 6.836989 32.065604 5.449081 0.000003 -0.000005 17.182886 -38.258072 -14.371850 0.000000 0.000005 -22.916943 15.029941 33.946238 3.550078 0.000000 0.000004 -24.025797 17.431244 3.352624 6.411147 0.000000 -8.173618 -3.541904 -0.000001 -0.000000 0.000001 -5.449081 0.000003 -0.000007 13.117574 -25.592422 36.663919 -0.000001 0.000003 -22.916948 -20.539832 30.737340 -15.459467 0.000001 0.000004 -24.025801 -26.710478 -4.178806 -12.214225 0.000003 -8.173618 -3.541901 -0.000003 -0.000002 -0.000000 
-2.018598 -1.133208 44.790222 0.554842 17.756926 -2.332938 0.000000 -0.000000 16.661686 -4.296799 -19.772505 -8.688684 0.000000 -0.000002 13.283289 1.295009 13.476131 2.462930 -0.000000 -1.089816 8.446083 1.762847 5.421102 5.800602 2.194602 0.288073 10.725537 0.682098 -8.177818 -18.319563 7.830958 -0.000003 -0.000002 -11.789250 -10.764889 4.278381 15.355263 -0.000003 -0.000002 2.173713 -4.398390 3.167426 14.270706 0.000003 0.000001 18.326026 -4.823091 -2.269132 -2.164328 0.288073 10.725544 -4.651357 -1.090219 14.438924 -7.830961 -0.000000 -0.000000 24.569029 18.752045 -26.785017 -15.355257 -0.000002 0.000008 78.149290 38.183903 37.676017 -14.270705 0.000003 0.000004 -6.458264 6.900354 32.013223 5.449080 0.000002 0.000002 17.261575 -38.273692 -14.324674 -0.000000 0.000003 -22.916937 14.970574 33.948523 3.537956 0.000001 0.000001 -24.025799 17.417879 3.355386 6.413151 0.000000 -8.173618 -3.541901 0.000000 -0.000001 -0.000001 -5.449080 0.000002 0.000003 13.108485 -25.586683 36.643046 0.000002 0.000004 -22.916941 -20.519135 30.732737 -15.448136 -0.000003 0.000004 -24.025805 -26.717689 -4.175366 -12.256879 0.000000 -8.173619 -3.541901 -0.000002 -0.000001 0.000000 
-2.016732 -1.138232 44.793343 0.570570 17.757363 -2.330684 0.000000 -0.000003 16.661686 -4.304609 -19.773799 -8.694885 -0.000000 -0.000004 13.283287 1.309702 13.463047 2.484872 -0.000000 -1.089814 8.446075 1.775380 5.482861 5.813825 2.194600 0.288071 10.725533 0.645627 -8.179781 -18.311184 7.830961 -0.000001 0.000011 -11.784511 -10.833859 4.297924 15.355262 0.000002 -0.000002 2.200528 -4.369452 3.189767 14.270698 0.000002 0.000008 18.306212 -4.798187 -2.289339 -2.164326 0.288071 10.725539 -4.663535 -1.091913 14.451372 -7.830962 -0.000001 0.000009 24.521603 18.654538 -26.787888 -15.355257 -0.000001 0.000014 78.296446 38.171441 37.495587 -14.270713 0.000002 0.000011 -6.462147 6.969209 32.029148 5.449080 0.000001 0.000003 17.247052 -38.268307 -14.325987 -0.000001 0.000005 -22.916948 14.969096 33.943001 3.536967 0.000000 0.000003 -24.025801 17.417824 3.359367 6.367405 0.000001 -8.173621 -3.541901 -0.000000 0.000001 -0.000000 -5.449080 -0.000000 0.000002 13.098156 -25.574491 36.628617 -0.000002 0.000005 -22.916946 -20.544466 30.723530 -15.429218 -0.000001 0.000004 -24.025799 -26.723438 -4.162076 -12.246324 0.000000 -8.173618 -3.541901 -0.000002 -0.000000 0.000000 
-2.016442 -1.144724 44.797295 0.576529 17.748375 -2.332957 -0.000000 -0.000002 16.661680 -4.288368 -19.770952 -8.681892 0.000000 -0.000003 13.283289 1.300173 13.457503 2.489628 0.000001 -1.089816 8.446087 1.767134 5.521317 5.855391 2.194601 0.288073 10.725541 0.641205 -8.175463 -18.336145 7.830958 -0.000004 -0.000008 -11.820417 -10.879354 4.350833 15.355263 -0.000001 0.000004 2.222330 -4.337105 3.206889 14.270698 -0.000002 -0.000001 18.317331 -4.766517 -2.286187 -2.164326 0.288072 10.725550 -4.691754 -1.098927 14.452171 -7.830963 -0.000001 -0.000010 24.541992 18.671087 -26.818798 -15.355259 0.000001 0.000015 78.277342 38.203820 37.527491 -14.270705 0.000002 0.000004 -6.465024 6.990566 32.014039 5.449080 0.000000 -0.000001 17.259741 -38.246577 -14.311084 -0.000001 0.000004 -22.916948 14.975460 33.920325 3.520132 0.000001 0.000002 -24.025801 17.401901 3.381422 6.381948 -0.000001 -8.173616 -3.541900 -0.000002 -0.000003 0.000000 -5.449081 0.000000 -0.000003 13.090939 -25.567695 36.616122 0.000001 0.000005 -22.916945 -20.560737 30.730199 -15.405989 -0.000000 0.000004 -24.025801 -26.731960 -4.137048 -12.208622 -0.000001 -8.173618 -3.541901 -0.000003 -0.000001 0.000001 
-2.014315 -1.148517 44.799400 0.590051 17.750528 -2.327158 0.000000 -0.000005 16.661676 -4.276765 -19.779985 -8.668498 -0.000000 -0.000000 13.283279 1.305076 13.444882 2.515565 0.000000 -1.089819 8.446081 1.767424 5.572844 5.835431 2.194602 0.288075 10.725541 0.631258 -8.167287 -18.362904 7.830959 -0.000001 -0.000002 -11.853435 -10.926775 4.381936 15.355256 0.000001 -0.000010 2.252232 -4.293379 3.239058 14.270699 -0.000001 -0.000000 18.358372 -4.723655 -2.277117 -2.164325 0.288074 10.725543 -4.706697 -1.103921 14.437381 -7.830963 -0.000001 -0.000006 24.543272 18.666552 -26.841096 -15.355261 -0.000005 0.000009 78.302252 38.227005 37.511037 -14.270704 0.000000 -0.000002 -6.491914 7.012756 32.022235 5.449081 -0.000001 -0.000008 17.235513 -38.241406 -14.324097 -0.000001 0.000005 -22.916945 14.957069 33.916715 3.539046 0.000000 0.000003 -24.025795 17.422114 3.371850 6.383989 -0.000001 -8.173619 -3.541901 -0.000003 0.000000 0.000000 -5.449081 -0.000000 -0.000006 13.081837 -25.559768 36.598042 0.000002 0.000003 -22.916945 -20.500217 30.704986 -15.421787 0.000004 0.000003 -24.025799 -26.792401 -4.136209 -12.257423 0.000000 -8.173617 -3.541901 -0.000001 -0.000002 0.000001 
-2.014393 -1.152166 44.802254 0.600029 17.752135 -2.320576 0.000000 -0.000001 16.661682 -4.270270 -19.785060 -8.658902 -0.000001 -0.000003 13.283279 1.319842 13.418155 2.542377 -0.000000 -1.089820 8.446079 1.777049 5.630825 5.813810 2.194599 0.288072 10.725535 0.636721 -8.165349 -18.380340 7.830961 -0.000002 0.000005 -11.904333 -10.946187 4.403449 15.355259 -0.000000 -0.000008 2.279804 -4.281094 3.269482 14.270697 -0.000005 0.000001 18.370267 -4.717653 -2.305906 -2.164328 0.288072 10.725534 -4.715059 -1.101301 14.435004 -7.830961 -0.000001 -0.000008 24.539104 18.644456 -26.861365 -15.355256 0.000002 -0.000011 78.376270 38.230543 37.453766 -14.270710 -0.000000 -0.000003 -6.511902 7.021764 32.038170 5.449081 0.000000 -0.000000 17.272116 -38.252399 -14.298070 -0.000002 0.000005 -22.916943 14.928681 33.912743 3.524441 0.000002 0.000004 -24.025801 17.415078 3.385779 6.419935 0.000001 -8.173619 -3.541900 0.000002 -0.000002 -0.000001 -5.449081 0.000000 -0.000002 13.075801 -25.558636 36.579891 -0.000002 0.000004 -22.916941 -20.475780 30.697578 -15.414960 0.000003 0.000003 -24.025801 -26.821212 -4.110812 -12.226539 -0.000001 -8.173619 -3.541897 0.000001 -0.000002 0.000001 
-2.015622 -1.154940 44.805187 0.615097 17.758787 -2.313276 0.000000 -0.000002 16.661684 -4.268887 -19.799494 -8.643882 -0.000001 -0.000003 13.283278 1.315825 13.413125 2.552620 0.000001 -1.089819 8.446088 1.771887 5.650682 5.814501 2.194602 0.288072 10.725541 0.658576 -8.135744 -18.403562 7.830954 -0.000000 -0.000000 -11.968511 -10.989196 4.417702 15.355262 0.000000 0.000001 2.304009 -4.252636 3.288812 14.270691 -0.000002 0.000007 18.382805 -4.681594 -2.250478 -2.164327 0.288072 10.725535 -4.675449 -1.113425 14.443367 -7.830961 0.000000 -0.000005 24.497373 18.664247 -26.923340 -15.355255 -0.000003 0.000001 78.476982 38.235949 37.403219 -14.270705 0.000004 0.000011 -6.537476 7.006970 32.084206 5.449080 0.000001 -0.000003 17.235655 -38.251757 -14.318459 0.000001 0.000005 -22.916939 14.954631 33.897225 3.520723 0.000001 0.000003 -24.025805 17.412179 3.391495 6.384563 0.000000 -8.173619 -3.541905 -0.000003 0.000000 0.000002 -5.449080 0.000002 -0.000000 13.078651 -25.576326 36.558116 0.000003 0.000005 -22.916945 -20.563919 30.735827 -15.337285 -0.000000 0.000004 -24.025805 -26.776145 -4.102986 -12.294885 0.000002 -8.173615 -3.541900 0.000000 -0.000003 0.000001 
